<svg width="213" height="200" viewBox="0 0 213 200" fill="none" xmlns="http://www.w3.org/2000/svg">
<rect width="213" height="200" rx="20" fill="#FFFAE1"/>
<path d="M167.36 153H143.04V109.864C143.04 105.171 142.315 101.885 140.864 100.008C139.413 98.1307 136.811 97.192 133.056 97.192C130.411 97.192 127.808 97.704 125.248 98.728C122.688 99.6667 119.659 101.587 116.16 104.488V143.4L127.68 147.88L125.12 153H100.8V109.864C100.8 105.171 100.075 101.885 98.624 100.008C97.1733 98.1307 94.5707 97.192 90.816 97.192C88.1707 97.192 85.568 97.704 83.008 98.728C80.448 99.6667 77.4187 101.587 73.92 104.488V143.4L85.44 147.88L82.88 153H47.168V149.032L58.56 140.072V103.848L47.168 97.192V93.224L69.056 82.472L73.152 98.856L90.176 84.648C91.968 83.9653 94.3147 83.624 97.216 83.624C102.165 83.624 106.261 84.9893 109.504 87.72C112.747 90.3653 114.795 94.0347 115.648 98.728L132.288 84.776C134.08 84.0933 136.427 83.752 139.328 83.752C145.131 83.752 149.739 85.544 153.152 89.128C156.565 92.6267 158.272 97.4053 158.272 103.464V143.4L169.92 147.88L167.36 153Z" fill="#4B5F5F"/>
</svg>
