<?xml version="1.0" encoding="UTF-8"?><svg id="Layer_2" xmlns="http://www.w3.org/2000/svg" viewBox="0 0 200 200"><defs><style>.cls-1{fill:#fff;}</style></defs><path class="cls-1" d="M187,13V187H13V13H187M200,0H0V200H200V0h0Z"/><path class="cls-1" d="M39.66,135.82l1.93-91.72,5.6,.39-2.12,91.34c-.13,6.82,1.26,12.23,4.15,16.22,2.9,3.99,6.98,5.99,12.26,5.99,.39,0,.58,.39,.58,1.16s-.19,1.16-.58,1.16c-2.83,0-5.73-.06-8.69-.19-2.96-.13-6.31-.19-10.04-.19-4.12,0-7.85,.07-11.2,.19-3.35,.13-6.44,.19-9.27,.19-.39,0-.58-.39-.58-1.16s.19-1.16,.58-1.16c5.28,0,9.46-1.99,12.55-5.99,3.09-3.99,4.7-9.4,4.83-16.22Zm138.26,22.21c.26,0,.39,.39,.39,1.16s-.13,1.16-.39,1.16c-3.35,0-7.14-.06-11.39-.19-4.25-.13-8.69-.19-13.32-.19s-9.21,.07-13.32,.19c-4.12,.13-7.85,.19-11.2,.19-.39,0-.58-.39-.58-1.16s.19-1.16,.58-1.16c6.05,0,9.95-.84,11.68-2.51,1.74-1.67,2.41-5.28,2.03-10.81l-4.44-85.74,9.85-15.45-49.24,115.47c-.13,.52-.61,.77-1.45,.77s-1.38-.26-1.64-.77L41.2,55.68c-4.89-9.14-10.75-13.71-17.57-13.71-.39,0-.58-.39-.58-1.16s.19-1.16,.58-1.16c2.7,0,5.53,.07,8.5,.19,2.96,.13,5.47,.19,7.53,.19,3.35,0,6.28-.06,8.79-.19,2.51-.13,4.47-.19,5.89-.19,1.8,0,3.19,.65,4.15,1.93,.97,1.29,2.54,3.99,4.73,8.11l43.25,81.1-9.66,17.38,45.19-103.69c.77-1.8,1.58-3.06,2.41-3.77,.84-.71,1.96-1.06,3.38-1.06,1.29,0,2.64,.07,4.06,.19,1.42,.13,3.09,.19,5.02,.19,4.12,0,7.63-.06,10.52-.19,2.9-.13,5.76-.19,8.59-.19,.39,0,.58,.39,.58,1.16s-.19,1.16-.58,1.16c-5.92,0-10.27,1.22-13.03,3.67-2.77,2.45-4.02,6.25-3.76,11.39l4.63,87.67c.26,3.73,.74,6.56,1.45,8.5,.71,1.93,2.03,3.22,3.96,3.86,1.93,.65,4.83,.96,8.69,.96Z"/></svg>