<svg width="200" height="200" viewBox="0 0 200 200" fill="none" xmlns="http://www.w3.org/2000/svg">
<rect width="200" height="200" rx="20" fill="#FFFAE1"/>
<path d="M41.44 130.08L49.248 128.928V75.1679L40.032 72.8639V65.952L58.336 63.6479L60.64 65.312L61.408 70.4319L61.28 74.5279C64.2666 71.7973 68.32 69.3226 73.44 67.104C78.6453 64.7999 83.296 63.6479 87.392 63.6479C92 63.6479 95.712 64.4159 98.528 65.952C101.344 67.488 103.477 69.8773 104.928 73.1199C107.659 70.8159 111.456 68.6826 116.32 66.7199C121.269 64.6719 125.877 63.6479 130.144 63.6479C135.435 63.6479 139.573 64.6719 142.56 66.7199C145.547 68.6826 147.637 71.7973 148.832 76.0639C150.112 80.2453 150.752 85.8773 150.752 92.96V128.928L159.968 130.08V136.352H129.504V130.08L137.44 128.928V93.3439C137.44 88.3946 137.056 84.4693 136.288 81.5679C135.605 78.5813 134.24 76.3626 132.192 74.9119C130.229 73.4613 127.371 72.736 123.616 72.736C120.8 72.736 117.813 73.376 114.656 74.656C111.499 75.8506 108.811 77.3013 106.592 79.0079C107.36 82.336 107.744 87.072 107.744 93.216V128.928L116.832 130.08V136.352H85.856V130.08L94.304 128.928V93.0879C94.304 87.9679 93.9627 84 93.28 81.184C92.6827 78.368 91.488 76.2773 89.696 74.9119C87.904 73.4613 85.1733 72.736 81.504 72.736C78.432 72.736 75.1467 73.5039 71.648 75.0399C68.2347 76.5759 65.248 78.3679 62.688 80.4159V128.928L71.264 130.08V136.352H41.44V130.08Z" fill="#4B5F5F"/>
</svg>
